<svg xmlns="http://www.w3.org/2000/svg" 
viewBox="0 0 394.75 60.69">

<g id="sub">
<path d="M12.09,60.69a12.08,12.08,0,0,1-8.54-3Q0,54.45,0,48V12.68Q0,6.26,3.55,3a12.12,12.12,0,0,1,8.54-3,12.14,12.14,0,0,1,8.54,3q3.54,3.3,3.55,9.72v5.83H21.05V12.68q0-5.07-2.54-7.44c-1.46-1.41-3.61-2.11-6.42-2.11s-5,.7-6.43,2.11Q3.13,7.61,3.13,12.68V48q0,5.07,2.53,7.44,2.21,2.11,6.43,2.11c2.81,0,5-.7,6.42-2.11Q21,53.08,21.05,48V39.48h3.13V48q0,6.43-3.55,9.72A12.09,12.09,0,0,1,12.09,60.69Z"/>
<path d="M42.18,60.69a11.75,11.75,0,0,1-8.45-3Q30.09,54.45,30.09,48V12.68q0-6.42,3.64-9.72a11.79,11.79,0,0,1,8.45-3c3.61,0,6.45,1,8.54,3q3.63,3.38,3.63,9.72V48q0,6.35-3.63,9.72C48.63,59.71,45.79,60.69,42.18,60.69Zm0-57.56a9.16,9.16,0,0,0-6.34,2.11q-2.62,2.37-2.62,7.44V48q0,5.07,2.62,7.44c1.46,1.41,3.58,2.11,6.34,2.11s5-.7,6.42-2.11Q51.23,53,51.22,48V12.68c0-3.33-.87-5.8-2.62-7.44A9.27,9.27,0,0,0,42.18,3.13Z"/>
<path d="M72.36,60.69a12.08,12.08,0,0,1-8.54-3Q60.27,54.45,60.27,48V12.68q0-6.42,3.55-9.72a12.12,12.12,0,0,1,8.54-3,12.1,12.1,0,0,1,8.53,3q3.56,3.3,3.55,9.72v5.83H81.32V12.68q0-5.07-2.54-7.44-2.2-2.12-6.42-2.11T65.93,5.24q-2.54,2.37-2.53,7.44V48q0,5.07,2.53,7.44,2.2,2.11,6.43,2.11t6.42-2.11q2.53-2.37,2.54-7.44V39.48h3.12V48q0,6.43-3.55,9.72A12.05,12.05,0,0,1,72.36,60.69Z"/>
<path d="M102.45,60.69a11.79,11.79,0,0,1-8.46-3Q90.36,54.45,90.36,48V12.68Q90.36,6.26,94,3a11.84,11.84,0,0,1,8.46-3q5.4,0,8.54,3,3.63,3.38,3.63,9.72V48q0,6.35-3.63,9.72C108.9,59.71,106.05,60.69,102.45,60.69Zm0-57.56a9.16,9.16,0,0,0-6.34,2.11q-2.62,2.37-2.62,7.44V48q0,5.07,2.62,7.44c1.46,1.41,3.58,2.11,6.34,2.11s5-.7,6.42-2.11Q111.5,53,111.49,48V12.68c0-3.33-.87-5.8-2.62-7.44A9.29,9.29,0,0,0,102.45,3.13Z"/>
<path d="M144.88,59.93,141.5,44.38H125.19l-3.38,15.55h-3.22L131.78.76h3.13l13.18,59.17ZM126,41.25h14.79l-7.35-34Z"/>
<path d="M190.27,59.93H187l-8.29-26.29h-9.55V59.93H166V.76h12.18a12.1,12.1,0,0,1,8.53,3q3.56,3.3,3.55,9.72V21q0,6.43-3.55,9.72a11.88,11.88,0,0,1-4.9,2.54ZM184.53,28.4c1.74-1.57,2.62-4.06,2.62-7.44V13.44c0-3.38-.88-5.86-2.62-7.44a9,9,0,0,0-6.34-2.11h-9.05V30.52h9.05A9,9,0,0,0,184.53,28.4Z"/>
<path d="M207.6,60.69a11.75,11.75,0,0,1-8.45-3q-3.65-3.28-3.64-9.72V12.68q0-6.42,3.64-9.72a11.79,11.79,0,0,1,8.45-3c3.61,0,6.45,1,8.54,3q3.63,3.38,3.63,9.72V48q0,6.35-3.63,9.72C214.05,59.71,211.21,60.69,207.6,60.69Zm0-57.56a9.16,9.16,0,0,0-6.34,2.11q-2.62,2.37-2.62,7.44V48q0,5.07,2.62,7.44a8.79,8.79,0,0,0,6.34,2.11q4.23,0,6.43-2.11c1.74-1.63,2.62-4.11,2.62-7.44V12.68c0-3.33-.88-5.8-2.62-7.44A9.3,9.3,0,0,0,207.6,3.13Z"/>
<path d="M250,59.93l-3.39-15.55H230.34L227,59.93h-3.21L236.93.76h3.13l13.19,59.17ZM231.1,41.25h14.79l-7.35-34Z"/>
<path d="M269.39,60.69c-3.6,0-6.45-1-8.53-3q-3.64-3.37-3.64-9.72V39.39h3.13V48q0,5,2.62,7.44,2.19,2.11,6.42,2.11a9,9,0,0,0,6.34-2.11q2.63-2.37,2.62-7.44V43.87q0-6.09-3.21-9.13a20.75,20.75,0,0,0-6.34-4.31,24.46,24.46,0,0,1-7.69-5q-3.89-3.54-3.89-11.07V12.68q0-6.35,3.64-9.72c2.08-2,4.93-3,8.53-3a12.12,12.12,0,0,1,8.54,3q3.56,3.3,3.55,9.72v5.75h-3.13V12.68q0-5.07-2.62-7.44-2.12-2.12-6.34-2.11T263,5.24c-1.75,1.64-2.62,4.11-2.62,7.44v1.69a12.5,12.5,0,0,0,1.9,7.19,13.43,13.43,0,0,0,3.85,4,29.73,29.73,0,0,0,4,2q11.42,5,11.41,16.31V48q0,6.43-3.55,9.72A12.08,12.08,0,0,1,269.39,60.69Z"/>
<path d="M309.8.76V3.89H298.55v56h-3.12v-56H284.27V.76Z"/>
<path d="M335.41,3.89H317.32V28.06h12.76v3.13H317.32V56.8h18.09v3.13H314.19V.76h21.22Z"/>
<path d="M365.42,59.93h-3.3l-8.29-26.29h-9.55V59.93h-3.12V.76h12.17a12.14,12.14,0,0,1,8.54,3q3.54,3.3,3.55,9.72V21q0,6.43-3.55,9.72A12,12,0,0,1,357,33.22ZM359.67,28.4c1.74-1.57,2.62-4.06,2.62-7.44V13.44c0-3.38-.88-5.86-2.62-7.44a9,9,0,0,0-6.34-2.11h-9.05V30.52h9.05A9,9,0,0,0,359.67,28.4Z"/>
<path d="M382.66,60.69c-3.61,0-6.45-1-8.54-3q-3.63-3.37-3.63-9.72V39.39h3.12V48q0,5,2.63,7.44,2.19,2.11,6.42,2.11A9,9,0,0,0,389,55.45q2.63-2.37,2.62-7.44V43.87q0-6.09-3.21-9.13a21,21,0,0,0-6.34-4.31,24.35,24.35,0,0,1-7.69-5q-3.9-3.54-3.89-11.07V12.68q0-6.35,3.63-9.72c2.09-2,4.93-3,8.54-3a12.14,12.14,0,0,1,8.54,3q3.54,3.3,3.55,9.72v5.75h-3.13V12.68q0-5.07-2.62-7.44-2.12-2.12-6.34-2.11t-6.42,2.11c-1.75,1.64-2.63,4.11-2.63,7.44v1.69a12.5,12.5,0,0,0,1.91,7.19,13.42,13.42,0,0,0,3.84,4,29.85,29.85,0,0,0,4,2q11.4,5,11.41,16.31V48q0,6.43-3.55,9.72A12.09,12.09,0,0,1,382.66,60.69Z"/>
</g>

</svg>